<mxfile host="app.diagrams.net" agent="Mozilla/5.0 (Windows NT 10.0; Win64; x64) AppleWebKit/537.36 (KHTML, like Gecko) Chrome/127.0.0.0 Safari/537.36 OPR/113.0.0.0 (Edition std-1)" version="24.7.17">
  <diagram name="Página-1" id="xDSoH521b-Y4r9lQ5-7c">
    <mxGraphModel dx="1393" dy="755" grid="1" gridSize="10" guides="1" tooltips="1" connect="1" arrows="1" fold="1" page="1" pageScale="1" pageWidth="827" pageHeight="1169" math="0" shadow="0">
      <root>
        <mxCell id="0" />
        <mxCell id="1" parent="0" />
        <mxCell id="nkUfKYir7cvC5fYIuB2i-8" style="edgeStyle=orthogonalEdgeStyle;rounded=0;orthogonalLoop=1;jettySize=auto;html=1;" edge="1" parent="1" source="nkUfKYir7cvC5fYIuB2i-1" target="nkUfKYir7cvC5fYIuB2i-2">
          <mxGeometry relative="1" as="geometry" />
        </mxCell>
        <mxCell id="nkUfKYir7cvC5fYIuB2i-1" value="Entrada de materias primas" style="rounded=1;whiteSpace=wrap;html=1;" vertex="1" parent="1">
          <mxGeometry x="30" y="330" width="120" height="60" as="geometry" />
        </mxCell>
        <mxCell id="nkUfKYir7cvC5fYIuB2i-9" style="edgeStyle=orthogonalEdgeStyle;rounded=0;orthogonalLoop=1;jettySize=auto;html=1;entryX=0;entryY=0.5;entryDx=0;entryDy=0;" edge="1" parent="1" source="nkUfKYir7cvC5fYIuB2i-2" target="nkUfKYir7cvC5fYIuB2i-3">
          <mxGeometry relative="1" as="geometry" />
        </mxCell>
        <mxCell id="nkUfKYir7cvC5fYIuB2i-2" value="Procesos de producción iniciales" style="rounded=1;whiteSpace=wrap;html=1;" vertex="1" parent="1">
          <mxGeometry x="190" y="330" width="120" height="60" as="geometry" />
        </mxCell>
        <mxCell id="nkUfKYir7cvC5fYIuB2i-10" style="edgeStyle=orthogonalEdgeStyle;rounded=0;orthogonalLoop=1;jettySize=auto;html=1;entryX=0;entryY=0.5;entryDx=0;entryDy=0;" edge="1" parent="1" source="nkUfKYir7cvC5fYIuB2i-3" target="nkUfKYir7cvC5fYIuB2i-4">
          <mxGeometry relative="1" as="geometry" />
        </mxCell>
        <mxCell id="nkUfKYir7cvC5fYIuB2i-3" value="Mezclado" style="rounded=1;whiteSpace=wrap;html=1;" vertex="1" parent="1">
          <mxGeometry x="360" y="330" width="120" height="60" as="geometry" />
        </mxCell>
        <mxCell id="nkUfKYir7cvC5fYIuB2i-11" style="edgeStyle=orthogonalEdgeStyle;rounded=0;orthogonalLoop=1;jettySize=auto;html=1;entryX=0;entryY=0.5;entryDx=0;entryDy=0;" edge="1" parent="1" source="nkUfKYir7cvC5fYIuB2i-4" target="nkUfKYir7cvC5fYIuB2i-5">
          <mxGeometry relative="1" as="geometry" />
        </mxCell>
        <mxCell id="nkUfKYir7cvC5fYIuB2i-4" value="Procesos de fabricación intermedios" style="rounded=1;whiteSpace=wrap;html=1;" vertex="1" parent="1">
          <mxGeometry x="520" y="330" width="120" height="60" as="geometry" />
        </mxCell>
        <mxCell id="nkUfKYir7cvC5fYIuB2i-12" style="edgeStyle=orthogonalEdgeStyle;rounded=0;orthogonalLoop=1;jettySize=auto;html=1;entryX=0.5;entryY=0;entryDx=0;entryDy=0;" edge="1" parent="1" source="nkUfKYir7cvC5fYIuB2i-5" target="nkUfKYir7cvC5fYIuB2i-6">
          <mxGeometry relative="1" as="geometry" />
        </mxCell>
        <mxCell id="nkUfKYir7cvC5fYIuB2i-5" value="Fermentación" style="rounded=1;whiteSpace=wrap;html=1;" vertex="1" parent="1">
          <mxGeometry x="670" y="330" width="120" height="60" as="geometry" />
        </mxCell>
        <mxCell id="nkUfKYir7cvC5fYIuB2i-13" style="edgeStyle=orthogonalEdgeStyle;rounded=0;orthogonalLoop=1;jettySize=auto;html=1;entryX=1;entryY=0.5;entryDx=0;entryDy=0;" edge="1" parent="1" source="nkUfKYir7cvC5fYIuB2i-6" target="nkUfKYir7cvC5fYIuB2i-7">
          <mxGeometry relative="1" as="geometry" />
        </mxCell>
        <mxCell id="nkUfKYir7cvC5fYIuB2i-6" value="Maduración" style="rounded=1;whiteSpace=wrap;html=1;" vertex="1" parent="1">
          <mxGeometry x="670" y="440" width="120" height="60" as="geometry" />
        </mxCell>
        <mxCell id="nkUfKYir7cvC5fYIuB2i-7" value="Embotellamiento" style="rounded=1;whiteSpace=wrap;html=1;" vertex="1" parent="1">
          <mxGeometry x="520" y="440" width="120" height="60" as="geometry" />
        </mxCell>
      </root>
    </mxGraphModel>
  </diagram>
</mxfile>
